<svg width="178" height="128" viewBox="0 0 178 128" fill="none" xmlns="http://www.w3.org/2000/svg">
<g filter="url(#filter0_d_129_14)">
<path d="M177.909 36.8182H152.273C152.091 34.697 151.606 32.7727 150.818 31.0454C150.061 29.3182 149 27.8333 147.636 26.5909C146.303 25.3182 144.682 24.3485 142.773 23.6818C140.864 22.9848 138.697 22.6364 136.273 22.6364C132.03 22.6364 128.44 23.6667 125.5 25.7273C122.591 27.7879 120.379 30.7424 118.864 34.5909C117.379 38.4394 116.636 43.0606 116.636 48.4545C116.636 54.1515 117.394 58.9242 118.909 62.7727C120.455 66.5909 122.682 69.4697 125.591 71.4091C128.5 73.3182 132 74.2727 136.091 74.2727C138.424 74.2727 140.515 73.9848 142.364 73.4091C144.212 72.803 145.818 71.9394 147.182 70.8182C148.546 69.697 149.652 68.3485 150.5 66.7727C151.379 65.1667 151.97 63.3636 152.273 61.3636L177.909 61.5454C177.606 65.4848 176.5 69.5 174.591 73.5909C172.682 77.6515 169.97 81.4091 166.455 84.8636C162.97 88.2879 158.652 91.0454 153.5 93.1364C148.349 95.2273 142.364 96.2727 135.546 96.2727C127 96.2727 119.333 94.4394 112.546 90.7727C105.788 87.1061 100.44 81.7121 96.5001 74.5909C92.591 67.4697 90.6365 58.7576 90.6365 48.4545C90.6365 38.0909 92.6365 29.3636 96.6365 22.2727C100.636 15.1515 106.03 9.77272 112.818 6.13635C119.606 2.46969 127.182 0.636353 135.546 0.636353C141.424 0.636353 146.833 1.43938 151.773 3.04544C156.712 4.6515 161.046 6.99999 164.773 10.0909C168.5 13.1515 171.5 16.9242 173.773 21.4091C176.046 25.8939 177.424 31.0303 177.909 36.8182Z" fill="#C4F0F8"/>
</g>
<g filter="url(#filter1_d_129_14)">
<path d="M40.0908 32.9091L55.3636 60H56.0908L71.5454 32.9091H99.7272L71.909 79.4545L100.818 126H71.909L56.0908 98.3636H55.3636L39.5454 126H10.8181L39.3636 79.4545L11.7272 32.9091H40.0908Z" fill="#6CCDE8"/>
</g>
<path d="M124 127V105.182H131.614V109.329H131.841C132.239 107.795 132.868 106.673 133.73 105.963C134.601 105.253 135.619 104.898 136.784 104.898C137.125 104.898 137.461 104.926 137.793 104.983C138.134 105.03 138.46 105.101 138.773 105.196V111.886C138.384 111.754 137.906 111.654 137.338 111.588C136.77 111.522 136.282 111.489 135.875 111.489C135.108 111.489 134.417 111.664 133.801 112.014C133.195 112.355 132.717 112.838 132.366 113.463C132.016 114.079 131.841 114.803 131.841 115.636V127H124Z" fill="#B3CFDD"/>
<path d="M118.564 105.227V110.909H104.189V105.227H118.564ZM106.974 100H114.814V120.028C114.814 120.331 114.867 120.587 114.971 120.795C115.075 120.994 115.236 121.146 115.454 121.25C115.671 121.345 115.951 121.392 116.292 121.392C116.528 121.392 116.803 121.364 117.116 121.307C117.438 121.25 117.674 121.203 117.826 121.165L118.962 126.676C118.612 126.78 118.11 126.908 117.457 127.06C116.813 127.211 116.046 127.311 115.155 127.358C113.356 127.453 111.846 127.268 110.624 126.804C109.403 126.33 108.484 125.587 107.868 124.574C107.253 123.561 106.955 122.292 106.974 120.767V100Z" fill="#B3CFDD"/>
<path d="M147.521 126.341C146.129 126.341 144.898 126.114 143.828 125.659C142.768 125.195 141.934 124.494 141.328 123.557C140.722 122.619 140.419 121.426 140.419 119.977C140.419 118.784 140.623 117.766 141.03 116.923C141.437 116.071 142.005 115.375 142.734 114.835C143.464 114.295 144.311 113.883 145.277 113.599C146.252 113.315 147.304 113.131 148.43 113.045C149.652 112.951 150.632 112.837 151.371 112.705C152.119 112.562 152.659 112.368 152.99 112.122C153.322 111.866 153.487 111.53 153.487 111.114V111.057C153.487 110.489 153.269 110.053 152.834 109.75C152.398 109.447 151.84 109.295 151.158 109.295C150.41 109.295 149.799 109.461 149.325 109.793C148.861 110.115 148.582 110.612 148.487 111.284H141.271C141.366 109.958 141.787 108.737 142.536 107.619C143.293 106.492 144.396 105.593 145.845 104.92C147.294 104.239 149.103 103.898 151.271 103.898C152.834 103.898 154.235 104.082 155.476 104.452C156.716 104.812 157.772 105.318 158.644 105.972C159.515 106.616 160.178 107.373 160.632 108.244C161.096 109.106 161.328 110.044 161.328 111.057V126H153.999V122.932H153.828C153.393 123.746 152.862 124.404 152.237 124.906C151.622 125.408 150.916 125.773 150.121 126C149.335 126.227 148.468 126.341 147.521 126.341ZM150.078 121.398C150.675 121.398 151.233 121.275 151.754 121.028C152.285 120.782 152.715 120.427 153.047 119.963C153.378 119.499 153.544 118.936 153.544 118.273V116.455C153.336 116.54 153.113 116.62 152.876 116.696C152.649 116.772 152.403 116.843 152.138 116.909C151.882 116.975 151.608 117.037 151.314 117.094C151.03 117.151 150.732 117.203 150.419 117.25C149.813 117.345 149.316 117.501 148.928 117.719C148.549 117.927 148.265 118.187 148.075 118.5C147.895 118.803 147.805 119.144 147.805 119.523C147.805 120.129 148.019 120.593 148.445 120.915C148.871 121.237 149.415 121.398 150.078 121.398Z" fill="#B3CFDD"/>
<defs>
<filter id="filter0_d_129_14" x="80.6365" y="0.636353" width="97.2727" height="95.6364" filterUnits="userSpaceOnUse" color-interpolation-filters="sRGB">
<feFlood flood-opacity="0" result="BackgroundImageFix"/>
<feColorMatrix in="SourceAlpha" type="matrix" values="0 0 0 0 0 0 0 0 0 0 0 0 0 0 0 0 0 0 127 0" result="hardAlpha"/>
<feOffset dx="-10"/>
<feComposite in2="hardAlpha" operator="out"/>
<feColorMatrix type="matrix" values="0 0 0 0 0.299418 0 0 0 0 0.433094 0 0 0 0 0.490385 0 0 0 1 0"/>
<feBlend mode="normal" in2="BackgroundImageFix" result="effect1_dropShadow_129_14"/>
<feBlend mode="normal" in="SourceGraphic" in2="effect1_dropShadow_129_14" result="shape"/>
</filter>
<filter id="filter1_d_129_14" x="0.818115" y="32.9091" width="100" height="93.0909" filterUnits="userSpaceOnUse" color-interpolation-filters="sRGB">
<feFlood flood-opacity="0" result="BackgroundImageFix"/>
<feColorMatrix in="SourceAlpha" type="matrix" values="0 0 0 0 0 0 0 0 0 0 0 0 0 0 0 0 0 0 127 0" result="hardAlpha"/>
<feOffset dx="-10"/>
<feComposite in2="hardAlpha" operator="out"/>
<feColorMatrix type="matrix" values="0 0 0 0 0.237495 0 0 0 0 0.546345 0 0 0 0 0.658654 0 0 0 1 0"/>
<feBlend mode="normal" in2="BackgroundImageFix" result="effect1_dropShadow_129_14"/>
<feBlend mode="normal" in="SourceGraphic" in2="effect1_dropShadow_129_14" result="shape"/>
</filter>
</defs>
</svg>
